# AST/ASF file generated using VICON BodyLanguage
# -----------------------------------------------
:version 1.10
:name VICON
:units
  mass 1.0
  length 0.45
  angle deg
:documentation
   .ast/.asf automatically generated from VICON data using
   VICON BodyBuilder and BodyLanguage model FoxedUp or BRILLIANT.MOD
:root
   order TX TY TZ RX RY RZ
   axis XYZ
   position 0 0 0  
   orientation 0 0 0 
:bonedata
  begin
     id 1 
     name lhipjoint
     direction 0.535335 -0.74333 0.401095 
     length 2.04549 
     axis 0 0 0  XYZ
  end
  begin
     id 2 
     name lfemur
     direction 0.34202 -0.939693 0  
     length 6.95643  
     axis 0 0 20  XYZ
    dof rx ry rz
    limits (-160.0 20.0)
           (-70.0 70.0)
           (-60.0 70.0)
  end
  begin
     id 3 
     name ltibia
     direction 0.34192 -0.939729 0   
     length 5.55969   
     axis 0 0 20   XYZ
    dof rx
    limits (-10.0 170.0)
  end
  begin
     id 4 
     name lfoot
     direction 0.216943 -0.596046 0.773088   
     length 2.27918   
     axis -90 7.62852e-016 20   XYZ
    dof rx rz
    limits (-45.0 90.0)
           (-70.0 20.0)
  end
  begin
     id 5 
     name ltoes
     direction 1.53519e-011 -4.21748e-011 1   
     length 1.05562   
     axis -90 7.62852e-016 20   XYZ
    dof rx
    limits (-90.0 20.0)
  end
  begin
     id 6 
     name rhipjoint
     direction -0.576368 -0.719173 0.38806   
     length 2.1142  
     axis 0 0 0  XYZ 
  end
  begin
     id 7 
     name rfemur
     direction -0.34202 -0.939693 0   
     length 7.07928   
     axis 0 0 -20   XYZ
    dof rx ry rz
    limits (-160.0 20.0)
           (-70.0 70.0)
           (-70.0 60.0)
  end
  begin
     id 8 
     name rtibia
     direction -0.34202 -0.939693 0   
     length 5.79974   
     axis 0 0 -20   XYZ
    dof rx
    limits (-10.0 170.0)
 end
 begin
     id 9 
     name rfoot
     direction -0.189288 -0.520065 0.832888   
     length 2.42173  
     axis -90 -7.62852e-016 -20   XYZ
    dof rx rz
    limits (-45.0 90.0)
           (-20.0 70.0)
  end
  begin
     id 10 
     name rtoes
     direction -1.53574e-011 -4.21658e-011 1   
     length 1.14469   
     axis -90 -7.62852e-016 -20   XYZ
    dof rx
    limits (-90.0 20.0)
  end
  begin
     id 11 
     name lowerback
     direction -0.00135702 0.993803 0.111144   
     length 1.91308   
     axis 0 0 0   XYZ
    dof rx ry rz
    limits (-20.0 45.0)
           (-30.0 30.0)
           (-30.0 30.0)
  end
  begin
     id 12 
     name upperback
     direction -0.0056745 0.999813 0.0184631   
     length 1.9212   
     axis 0 0 0   XYZ
    dof rx ry rz
    limits (-20.0 45.0)
           (-30.0 30.0)
           (-30.0 30.0)
  end
  begin
     id 13 
     name thorax
     direction -0.00733434 0.999426 -0.0330788   
     length 1.94196   
     axis 0 0 0   XYZ
    dof rx ry rz
    limits (-20.0 45.0)
           (-30.0 30.0)
           (-30.0 30.0)
  end
  begin
     id 14 
     name lowerneck
     direction 0.0563074 0.996944 -0.0541571   
     length 2.34257   
     axis 0 0 0   XYZ
    dof rx ry rz
    limits (-20.0 45.0)
           (-30.0 30.0)
           (-30.0 30.0)
  end
  begin
     id 15 
     name upperneck
     direction -0.0544519 0.976166 -0.210085   
     length 2.32506   
     axis 0 0 0   XYZ
    dof rx ry rz
    limits (-20.0 45.0)
           (-30.0 30.0)
           (-30.0 30.0)
  end
  begin
     id 16
     name head
     direction -0.0226035 0.997615 -0.0652205  
     length 2.3648  
     axis 0 0 0   XYZ
    dof rx ry rz
    limits (-20.0 45.0)
           (-30.0 30.0)
           (-30.0 30.0)
  end
  begin
     id 17 
     name lclavicle
     direction 0.92109 0.381297 -0.0787716  
     length 4.0487  
     axis 0 0 0   XYZ
    dof ry rz
    limits (-20.0 10.0)
           (0.0 20.0)
  end
  begin
     id 18 
     name lhumerus
     direction 1 -4.48986e-011 3.56724e-027   
     length 4.94991   
     axis 180 -30 -90   XYZ
    dof rx ry rz
    limits (-60.0 90.0)
           (-90.0 90.0)
           (-90.0 90.0)
  end
  begin
     id 19
     name lradius
     direction 1 -4.48981e-011 8.62147e-027   
     length 2.7606   
     axis 180 -30 -90   XYZ
    dof rx
    limits (-10.0 170.0)
  end
  begin
     id 20
     name lwrist
     direction 1 -4.48989e-011 1.59799e-026   
     length 1.3803   
     axis -1.17785e-014 90 90   XYZ
    dof ry
    limits (-180.0 0.0)
 end
  begin
     id 21 
     name lhand
     direction 1 -4.48896e-011 3.19599e-026   
     length 0.843936   
     axis -2.03931e-014 90 90   XYZ
    dof rx rz
    limits (-90.0 90.0)
           (-45.0 45.0)
  end
  begin
     id 22 
     name lfingers
     direction 1 -4.48887e-011 6.39197e-026   
     length 0.680403   
     axis -4.07862e-014 90 90   XYZ
    dof rx
    limits (0.0 90.0)
  end
  begin
     id 23
     name lthumb
     direction 0.707107 -6.348e-011 0.707107   
     length 0.976926   
     axis -90 45 2.85299e-015   XYZ
    dof rx rz
    limits (-45.0 45.0)
           (-45.0 45.0)
  end
  begin
     id 24 
     name rclavicle
     direction -0.951104 0.307692 -0.026953   
     length 4.21801  
     axis 0 0 0   XYZ 
    dof ry rz
    limits (-10.0 20.0)
           (-20.0 0.0)
  end
  begin
     id 25 
     name rhumerus
     direction -1 -4.4896e-011 -1.8171e-018  
     length 4.32982   
     axis 180 30 90   XYZ
    dof rx ry rz
    limits (-90.0 60.0)
           (-90.0 90.0)
           (-90.0 90.0)
  end
  begin
     id 26 
     name rradius
     direction -1 -4.48959e-011 8.25165e-027   
     length 3.20057   
     axis 180 30 90   XYZ
    dof rx
    limits (-10.0 170.0)
  end
  begin
     id 27 
     name rwrist
     direction -1 -4.48997e-011 1.59799e-026   
     length 1.60029   
     axis -1.17785e-014 -90 -90   XYZ
    dof ry
    limits (-180.0 0.0)
  end
  begin
     id 28
     name rhand
     direction -1 -4.49023e-011 3.19599e-026   
     length 0.960433   
     axis -2.03931e-014 -90 -90   XYZ
    dof rx rz
    limits (-90.0 90.0)
           (-45.0 45.0)
  end
  begin
     id 29
     name rfingers
     direction -1 -4.48802e-011 6.39197e-026   
     length 0.774326   
     axis -4.07862e-014 -90 -90   XYZ
    dof rx
    limits (0.0 90.0)
  end
  begin
     id 30
     name rthumb
     direction -0.707107 -6.34876e-011 0.707107   
     length 1.11178   
     axis -90 -45 -2.85299e-015   XYZ
    dof rx rz
    limits (-45.0 45.0)
           (-45.0 45.0)
  end
:hierarchy
  begin
    root lhipjoint rhipjoint lowerback
    lhipjoint lfemur
    lfemur ltibia
    ltibia lfoot
    lfoot ltoes
    rhipjoint rfemur
    rfemur rtibia
    rtibia rfoot
    rfoot rtoes
    lowerback upperback
    upperback thorax
    thorax lowerneck lclavicle rclavicle
    lowerneck upperneck
    upperneck head
    lclavicle lhumerus
    lhumerus lradius
    lradius lwrist
    lwrist lhand lthumb
    lhand lfingers
    rclavicle rhumerus
    rhumerus rradius
    rradius rwrist
    rwrist rhand rthumb
    rhand rfingers
end

#!OML:ASF C:\KaitlinTest1\Natural Motions\Nikki\Session 2\Nikki.ASF
:FULLY-SPECIFIED
:DEGREES
96
root -13.6763 16.6542 4.5927 -107.892 87.9032 -116.112
lowerback -11.1489 -0.876048 2.85859
upperback -3.62611 -1.29909 -1.23256
thorax 2.36614 -0.600033 -3.05748
lowerneck -5.24306 -11.7092 -9.77684
upperneck 6.0964 40.986 5.95566
head 167.327 61.7712 -37.7451
rclavicle -6.4605e-016 -3.18055e-015
rhumerus -40.4683 -30.0316 -79.5367
rradius 16.6569
rwrist 28.3004
rhand -36.7309 2.15541
rfingers 7.12502
rthumb -9.81501 -27.5958
lclavicle -6.4605e-016 -3.18055e-015
lhumerus -39.9235 16.7628 80.8129
lradius 20.1109
lwrist -42.1791
lhand -33.6192 3.19521
lfingers 7.12502
lthumb -6.81195 33.0656
rfemur -5.60072 -13.7658 20.0122
rtibia 11.8541
rfoot -11.3125 11.1146
rtoes -2.22639e-014
lfemur -11.0351 14.4951 -18.8085
ltibia 15.6681
lfoot -4.9233 -15.0409
ltoes -1.59028e-014
97
root -13.6764 16.6532 4.59322 -107.82 87.9022 -116.023
lowerback -11.1311 -0.877887 2.85732
upperback -3.62003 -1.30137 -1.23394
thorax 2.36261 -0.601338 -3.05817
lowerneck -5.23643 -11.7059 -9.77269
upperneck 6.10261 41.0045 5.96599
head 167.377 61.7234 -37.7061
rclavicle -8.64713e-015 -1.35174e-014
rhumerus -40.4667 -30.0152 -79.5576
rradius 16.6515
rwrist 28.2694
rhand -36.7863 2.22055
rfingers 7.12502
rthumb -9.86843 -27.5282
lclavicle -8.64713e-015 -1.35174e-014
lhumerus -39.9131 16.8544 80.7554
lradius 20.0833
lwrist -42.2423
lhand -33.6147 3.17886
lfingers 7.12502
lthumb -6.80764 33.0494
rfemur -5.58305 -13.7896 20.0119
rtibia 11.8569
rfoot -11.3213 11.1281
rtoes -5.56597e-015
lfemur -11.0184 14.5189 -18.8037
ltibia 15.6757
lfoot -4.9265 -15.0389
ltoes -2.38542e-014
98
root -13.6763 16.6531 4.59347 -107.518 87.889 -115.729
lowerback -11.1356 -0.873325 2.87638
upperback -3.62342 -1.29746 -1.23009
thorax 2.3614 -0.599422 -3.06448
lowerneck -5.23372 -11.7095 -9.77088
upperneck 6.09838 40.9848 5.96034
head 167.352 61.7456 -37.7206
rclavicle 8.44835e-015 3.18055e-015
rhumerus -40.4666 -30.0073 -79.5599
rradius 16.657
rwrist 28.2402
rhand -36.7591 2.19272
rfingers 7.12502
rthumb -9.84226 -27.5572
lclavicle 8.44835e-015 3.18055e-015
lhumerus -39.9296 16.7561 80.8147
lradius 20.1416
lwrist -42.1623
lhand -33.6176 3.21629
lfingers 7.12502
lthumb -6.81046 33.0867
rfemur -5.58264 -13.7909 20.0307
rtibia 11.846
rfoot -11.298 11.129
rtoes 3.10104e-014
lfemur -11.0352 14.5287 -18.7871
ltibia 15.6986
lfoot -4.94079 -15.0328
ltoes 3.49861e-014
99
root -13.6764 16.6527 4.59407 -107.736 87.8966 -115.938
lowerback -11.1222 -0.874051 2.87234
upperback -3.61916 -1.29779 -1.2353
thorax 2.35849 -0.599714 -3.06742
lowerneck -5.2356 -11.7193 -9.76642
upperneck 6.09454 40.9626 5.9492
head 167.282 61.7739 -37.7657
rclavicle -5.2181e-015 -8.74653e-015
rhumerus -40.4989 -30.0918 -79.488
rradius 16.653
rwrist 28.4063
rhand -36.7274 2.21504
rfingers 7.12502
rthumb -9.81164 -27.5364
lclavicle -5.2181e-015 -8.74653e-015
lhumerus -39.914 16.7476 80.8197
lradius 20.1467
lwrist -42.1781
lhand -33.5478 3.27473
lfingers 7.12502
lthumb -6.743 33.1474
rfemur -5.562 -13.7615 20.0193
rtibia 11.8355
rfoot -11.3032 11.0997
rtoes 2.38542e-014
lfemur -11.0363 14.514 -18.7932
ltibia 15.7185
lfoot -4.97129 -15.0436
ltoes 4.77083e-015
